<?xml version="1.0" encoding="UTF-8"?>
<svg id="Layer_1" data-name="Layer 1" xmlns="http://www.w3.org/2000/svg" viewBox="0 0 835.2 447.71">
  <path d="M397.06,159.69c0-6.03-4.89-10.92-10.92-10.92h-12.48c-6.03,0-10.92,4.89-10.92,10.92v77.02c-.04,3.3-.52,6.07-1.44,8.3-.92,2.23-2.27,3.91-4.04,5.04-1.78,1.13-3.96,1.69-6.55,1.69s-4.71-.55-6.48-1.66c-1.78-1.11-3.15-2.77-4.13-4.98l-.49-1.11-28.64-86.76c-1.65-5.01-6.34-8.4-11.61-8.4h-29.92c-5.28,0-9.96,3.38-11.61,8.4l-34.27,103.83c-2.61,7.91,3.28,16.06,11.61,16.06h11.59c5.39,0,10.15-3.53,11.71-8.7l4.79-15.86h42.48c.97,3.1,2.26,5.92,3.9,8.42.58.88,1.19,1.72,1.83,2.53,1.26,1.71,2.57,3.16,4.41,4.69,2.32,2.06,4.9,3.82,7.75,5.25.03.02.05.03.07.04.05.03,1.29.89,1.34.92l3.35,1.05c1.27.46,2.56.85,3.87,1.22l1.38.43c.06,0,.12-.01.18-.01,4.6,1.13,9.49,1.69,14.65,1.69,9.48,0,17.86-1.76,25.15-5.29,7.29-3.53,13.01-8.46,17.16-14.78,4.15-6.33,6.25-13.67,6.29-22.02v-77.02ZM271.11,226.51l12.78-42.34h1l13.04,42.34h-26.82Z" style="fill: #fff; stroke: #231f20; stroke-linecap: round; stroke-linejoin: round; stroke-width: 6px;"/>
  <path d="M482.38,157.78c-1.76-5.34-6.75-8.95-12.37-8.95h-28.77c-5.62,0-10.61,3.61-12.37,8.95l-33.74,102.23c-2.78,8.43,3.5,17.11,12.37,17.11h9.89c5.75,0,10.81-3.76,12.47-9.26l4.62-15.29h42.3l4.62,15.29c1.66,5.5,6.73,9.26,12.47,9.26h9.89c8.88,0,15.15-8.68,12.37-17.11l-33.74-102.23ZM442.34,226.51l12.78-42.34h1l12.78,42.34h-26.57Z" style="fill: #fff; stroke: #231f20; stroke-linecap: round; stroke-linejoin: round; stroke-width: 6px;"/>
  <path d="M606.88,147.89h-26.44c-2.07,0-3.96,1.19-4.86,3.06l-23.59,49.06h-1l-23.59-49.06c-.9-1.87-2.79-3.06-4.86-3.06h-26.44c-4.08,0-6.68,4.35-4.75,7.94l42.21,78.81c.42.78.64,1.66.64,2.55v33.59c0,2.98,2.41,5.39,5.39,5.39h23.79c2.98,0,5.39-2.41,5.39-5.39v-33.59c0-.89.22-1.76.64-2.55l42.21-78.81c1.92-3.59-.68-7.94-4.76-7.94Z" style="fill: #fff; stroke: #231f20; stroke-linecap: round; stroke-linejoin: round; stroke-width: 6px;"/>
  <path d="M608.61,254.94c-2.42-2.32-5.2-3.48-8.35-3.48-3.32,0-6.16,1.16-8.52,3.48-2.36,2.32-3.53,5.11-3.5,8.37-.03,3.14,1,5.84,3.08,8.09,2.29,2.47,5.55,3.92,8.91,3.93,2.13,0,4.09-.53,5.9-1.61,1.8-1.07,3.27-2.52,4.4-4.33,1.13-1.82,1.71-3.84,1.74-6.07-.03-3.26-1.25-6.05-3.67-8.37Z" style="fill: #fff; stroke: #231f20; stroke-linecap: round; stroke-linejoin: round; stroke-width: 6px;"/>
</svg>